<?xml version="1.0" standalone="no"?>
<!DOCTYPE svg PUBLIC "-//W3C//DTD SVG 20010904//EN"
 "http://www.w3.org/TR/2001/REC-SVG-20010904/DTD/svg10.dtd">
<svg version="1.0" xmlns="http://www.w3.org/2000/svg"
 width="200.000000pt" height="120.000000pt" viewBox="0 0 200.000000 120.000000"
 preserveAspectRatio="xMidYMid meet">
<g transform="translate(0.000000,120.000000) scale(0.100000,-0.100000)"
fill="#000000" stroke="none">
<path d="M663 1083 c-17 -2 -37 -11 -43 -19 -15 -17 -7 -31 84 -134 36 -41 66
-80 66 -86 0 -7 -17 -19 -37 -27 -21 -8 -65 -31 -97 -51 -90 -54 -125 -49
-271 45 -157 100 -219 125 -250 99 -35 -29 -7 -200 46 -287 15 -23 17 -37 11
-50 -16 -29 -24 -174 -13 -222 5 -24 16 -50 24 -58 22 -22 59 1 175 111 130
123 173 137 276 92 l54 -24 0 -51 c0 -28 5 -57 11 -65 15 -18 194 -30 273 -18
76 11 121 5 113 -16 -16 -41 -16 -103 -2 -153 21 -71 47 -99 94 -99 30 0 44 8
77 44 23 24 61 82 86 129 l45 85 65 7 c159 16 317 64 413 125 58 36 60 58 16
140 -58 109 -195 227 -312 268 -32 11 -54 26 -62 43 -21 39 -91 98 -143 120
-101 44 -157 51 -417 54 -137 2 -264 1 -282 -2z"/>
</g>
</svg>
