<svg width="300" height="285" xmlns="http://www.w3.org/2000/svg">
 <g>
  <title>background</title>
  <rect fill="#fff" id="canvas_background" height="287" width="302" y="-1" x="-1"/>
  <g display="none" overflow="visible" y="0" x="0" height="100%" width="100%" id="canvasGrid">
   <rect fill="url(#gridpattern)" stroke-width="0" y="0" x="0" height="100%" width="100%"/>
  </g>
 </g>
 <g>
  <title>Layer 1</title>
  <path id="svg_1" d="m0.75,108.884872l113.826683,0l35.173317,-108.134871l35.17334,108.134871l113.82666,0l-92.08754,66.830261l35.17514,108.134872l-92.087601,-66.832077l-92.08757,66.832077l35.175163,-108.134872l-92.087583,-66.830261z" opacity="0.5" stroke-width="1.5" stroke="#000" fill="#fff"/>
  <path id="svg_2" d="m0.75,108.884872l113.826683,0l35.173317,-108.134871l35.17334,108.134871l113.82666,0l-92.08754,66.830261l35.17514,108.134872l-92.087601,-66.832077l-92.08757,66.832077l35.175163,-108.134872l-92.087583,-66.830261z" opacity="0.5" stroke-width="1.5" stroke="#000" fill="#000000"/>
  <path id="svg_3" d="m0.75,108.884872l113.826683,0l35.173317,-108.134871l35.17334,108.134871l113.82666,0l-92.08754,66.830261l35.17514,108.134872l-92.087601,-66.832077l-92.08757,66.832077l35.175163,-108.134872l-92.087583,-66.830261z" opacity="0.5" stroke-width="1.5" stroke="#000" fill="#000000"/>
  <path id="svg_4" d="m0.75,108.884872l113.826683,0l35.173317,-108.134871l35.17334,108.134871l113.82666,0l-92.08754,66.830261l35.17514,108.134872l-92.087601,-66.832077l-92.08757,66.832077l35.175163,-108.134872l-92.087583,-66.830261z" opacity="0.5" stroke-width="1.5" stroke="#000" fill="#000000"/>
  <path id="svg_5" d="m0.75,108.884872l113.826683,0l35.173317,-108.134871l35.17334,108.134871l113.82666,0l-92.08754,66.830261l35.17514,108.134872l-92.087601,-66.832077l-92.08757,66.832077l35.175163,-108.134872l-92.087583,-66.830261z" opacity="0.5" stroke-width="1.5" stroke="#000" fill="#000000"/>
  <path id="svg_6" d="m0.75,108.884872l113.826683,0l35.173317,-108.134871l35.17334,108.134871l113.82666,0l-92.08754,66.830261l35.17514,108.134872l-92.087601,-66.832077l-92.08757,66.832077l35.175163,-108.134872l-92.087583,-66.830261z" opacity="0.5" stroke-width="1.5" stroke="#000" fill="#000000"/>
  <path id="svg_7" d="m0.75,108.884872l113.826683,0l35.173317,-108.134871l35.17334,108.134871l113.82666,0l-92.08754,66.830261l35.17514,108.134872l-92.087601,-66.832077l-92.08757,66.832077l35.175163,-108.134872l-92.087583,-66.830261z" opacity="0.5" stroke-width="1.5" stroke="#000" fill="#000000"/>
  <path id="svg_8" d="m0.75,108.884872l113.826683,0l35.173317,-108.134871l35.17334,108.134871l113.82666,0l-92.08754,66.830261l35.17514,108.134872l-92.087601,-66.832077l-92.08757,66.832077l35.175163,-108.134872l-92.087583,-66.830261z" opacity="0.5" stroke-width="1.5" stroke="#000" fill="#000000"/>
  <path id="svg_9" d="m0.75,108.884872l113.826683,0l35.173317,-108.134871l35.17334,108.134871l113.82666,0l-92.08754,66.830261l35.17514,108.134872l-92.087601,-66.832077l-92.08757,66.832077l35.175163,-108.134872l-92.087583,-66.830261z" opacity="0.5" stroke-width="1.5" stroke="#000" fill="#000000"/>
  <path id="svg_10" d="m0.75,108.884872l113.826683,0l35.173317,-108.134871l35.17334,108.134871l113.82666,0l-92.08754,66.830261l35.17514,108.134872l-92.087601,-66.832077l-92.08757,66.832077l35.175163,-108.134872l-92.087583,-66.830261z" opacity="0.5" stroke-width="1.5" stroke="#000" fill="#000000"/>
  <path id="svg_11" d="m0.75,108.884872l113.826683,0l35.173317,-108.134871l35.17334,108.134871l113.82666,0l-92.08754,66.830261l35.17514,108.134872l-92.087601,-66.832077l-92.08757,66.832077l35.175163,-108.134872l-92.087583,-66.830261z" opacity="0.5" stroke-width="1.5" stroke="#000" fill="#000000"/>
  <path id="svg_12" d="m0.75,108.884872l113.826683,0l35.173317,-108.134871l35.17334,108.134871l113.82666,0l-92.08754,66.830261l35.17514,108.134872l-92.087601,-66.832077l-92.08757,66.832077l35.175163,-108.134872l-92.087583,-66.830261z" opacity="0.5" stroke-width="1.5" stroke="#000" fill="#000000"/>
  <path id="svg_13" d="m0.75,108.884872l113.826683,0l35.173317,-108.134871l35.17334,108.134871l113.82666,0l-92.08754,66.830261l35.17514,108.134872l-92.087601,-66.832077l-92.08757,66.832077l35.175163,-108.134872l-92.087583,-66.830261z" opacity="0.5" stroke-width="1.5" stroke="#000" fill="#000000"/>
 </g>
</svg>